# xmcd
#
# Track frame offsets:
#	150
#	21133
#	34478
#	51958
#	67822
#	85585
#	104204
#	119823
#	143945
#	163904
#	179412
#	194874
#	214702
#
# Disc length: 3069 seconds
#
# Revision: 0
# Processed by: cddbd v1.5.2PL0 Copyright (c) Steve Scherf et al.
# Submitted via: audiograbber 1.83.01
#
DISCID=cd0bfb0d
DTITLE=JONNY LOGAN - The Irish Connection 2
DYEAR=2013
DGENRE=Country
TTITLE0=Lannigans Ball
TTITLE1=Gaiway Girl
TTITLE2=The irish Soul
TTITLE3=Body of an American
TTITLE4=Irish Hardbeat
TTITLE5=The Holy Ground
TTITLE6=Dearg Doom
TTITLE7=Filens Song
TTITLE8=Fairy Tale of NewYork
TTITLE9=Independent Man
TTITLE10=Shemoved Through the Fair
TTITLE11=Matty Groves
TTITLE12=The old Triangle
EXTD=
EXTT0=
EXTT1=
EXTT2=
EXTT3=
EXTT4=
EXTT5=
EXTT6=
EXTT7=
EXTT8=
EXTT9=
EXTT10=
EXTT11=
EXTT12=
PLAYORDER=
